<?xml version="1.0" encoding="UTF-8"?>
<svg width="31px" height="23px" viewBox="0 0 31 23" version="1.1" xmlns="http://www.w3.org/2000/svg" xmlns:xlink="http://www.w3.org/1999/xlink">
    <!-- Generator: Sketch 54 (76480) - https://sketchapp.com -->
    <title>envelope-solid</title>
    <desc>Created with Sketch.</desc>
    <g id="Key-People" stroke="none" stroke-width="1" fill="none" fill-rule="evenodd">
        <g id="Desktop" transform="translate(-288.000000, -534.000000)" fill="#E5D698" fill-rule="nonzero">
            <g id="Heading" transform="translate(60.000000, 188.000000)">
                <g id="Contact-Information" transform="translate(0.000000, 342.000000)">
                    <g id="envelope-solid" transform="translate(228.000000, 4.000000)">
                        <path d="M29.764974,7.59479167 C29.9934896,7.40911458 30.3333333,7.5828125 30.3333333,7.87630208 L30.3333333,20.125 C30.3333333,21.7122396 29.0735677,23 27.5208333,23 L3.14583333,23 C1.59309896,23 0.333333333,21.7122396 0.333333333,20.125 L0.333333333,7.88229167 C0.333333333,7.5828125 0.667317708,7.41510417 0.901692708,7.60078125 C2.21419271,8.64296875 3.95442708,9.96666667 9.93098958,14.4049479 C11.1673177,15.3273437 13.2532552,17.2679687 15.3333333,17.2559896 C17.4251302,17.2739583 19.5520833,15.2914062 20.7415365,14.4049479 C26.718099,9.96666667 28.452474,8.63697917 29.764974,7.59479167 Z M15.3333333,15.3333333 C16.6927083,15.3572917 18.6497396,13.584375 19.6341146,12.8536458 C27.4095052,7.08567708 28.0013021,6.58255208 29.7942708,5.14505208 C30.1341146,4.87552083 30.3333333,4.45625 30.3333333,4.01302083 L30.3333333,2.875 C30.3333333,1.28776042 29.0735677,0 27.5208333,0 L3.14583333,0 C1.59309896,-1.70234197e-15 0.333333333,1.28776042 0.333333333,2.875 L0.333333333,4.01302083 C0.333333333,4.45625 0.532552083,4.86953125 0.872395833,5.14505208 C2.66536458,6.5765625 3.25716146,7.08567708 11.0325521,12.8536458 C12.0169271,13.584375 13.9739583,15.3572917 15.3333333,15.3333333 Z" id="Shape"></path>
                    </g>
                </g>
            </g>
        </g>
    </g>
</svg>