<?xml version="1.0" encoding="UTF-8"?>
<svg width="250px" height="173px" viewBox="0 0 250 173" version="1.1" xmlns="http://www.w3.org/2000/svg" xmlns:xlink="http://www.w3.org/1999/xlink">
    <!-- Generator: Sketch 54 (76480) - https://sketchapp.com -->
    <title>Group</title>
    <desc>Created with Sketch.</desc>
    <g id="Page-1" stroke="none" stroke-width="1" fill="none" fill-rule="evenodd">
        <g id="Group" transform="translate(-0.420764, 0.512118)" fill="#E2D292" stroke="#E2D292">
            <polygon id="top" points="0.420763852 0.48788249 14.5042755 14.4878825 236.303481 14.4878825 249.420764 0.48788249"></polygon>
            <polygon id="right" transform="translate(180.920764, 95.487882) scale(-1, 1) translate(-180.920764, -95.487882) " points="151.420764 40.4878825 166.542556 55.6938451 193.538415 55.6938451 193.538415 150.487882 210.420764 144.223392 210.420764 40.4878825"></polygon>
            <polygon id="left" points="40.4207639 40.4878825 55.5425556 55.6938451 82.5384148 55.6938451 82.5384148 150.487882 99.4207639 144.223392 99.4207639 40.4878825"></polygon>
            <path d="M117.332742,40.4878825 L134.74402,40.4878825 L134.74402,154.997348 C156.067726,158.439517 176.741987,162.754033 196.766804,167.940894 C197.963552,168.250878 198.510856,169.433207 198.408716,171.487882 L54.6198071,171.487882 C54.1491741,169.43839 54.5131414,168.25606 55.7117093,167.940894 C75.417453,162.759216 95.9577971,158.4447 117.332742,154.997348 L117.332742,40.4878825 Z" id="Path"></path>
        </g>
    </g>
</svg>