<?xml version="1.0" encoding="UTF-8"?>
<svg width="421px" height="73px" viewBox="0 0 421 73" version="1.1" xmlns="http://www.w3.org/2000/svg" xmlns:xlink="http://www.w3.org/1999/xlink">
    <!-- Generator: Sketch 54 (76480) - https://sketchapp.com -->
    <title>Group 2</title>
    <desc>Created with Sketch.</desc>
    <g id="Page-1" stroke="none" stroke-width="1" fill="none" fill-rule="evenodd">
        <g id="designcrowd_637245_21937739_3691949_vector" transform="translate(-325.000000, -576.000000)">
            <g id="Group-2" transform="translate(326.000000, 577.000000)">
                <g id="Group" fill="#E2D292" stroke="#E2D292">
                    <polygon id="top" points="0 0 5.76914936 6 96.6266551 6 102 0"></polygon>
                    <polygon id="right" transform="translate(74.000000, 39.500000) scale(-1, 1) translate(-74.000000, -39.500000) " points="62 17 68.1512373 23.2206211 79.1326038 23.2206211 79.1326038 62 86 59.4372541 86 17"></polygon>
                    <polygon id="left" points="16 17 22.1512373 23.2206211 33.1326038 23.2206211 33.1326038 62 40 59.4372541 40 17"></polygon>
                    <path d="M47.7764354,17 L54.9102229,17 L54.9102229,63.328257 C63.6470192,64.7208905 72.1177234,66.4664577 80.3223357,68.5649588 C80.8126703,68.6903721 81.036913,69.1687192 80.9950636,70 L22.0815525,70 C21.8887236,69.170816 22.0378492,68.6924689 22.528929,68.5649588 C30.6028101,66.4685546 39.0186456,64.7229873 47.7764354,63.328257 L47.7764354,17 Z" id="Path"></path>
                </g>
                <polyline id="Fill-3" fill="#E1D292" points="128.901 4.777 141.902 4.777 141.902 39.466 146.999 39.466 146.999 4.777 160.001 4.777 160.001 0.012 128.901 0.012 128.901 4.777"></polyline>
                <polyline id="Fill-4" fill="#E1D292" points="187.771 19.09 174.935 0.012 168.739 0.012 185.167 23.891 185.167 39.466 190.264 39.466 190.264 23.836 206.692 0.012 200.718 0.012 187.771 19.09"></polyline>
                <path d="M223.292,4.777 L234.91,4.777 C237.955,4.777 240.343,5.433 242.008,6.727 C243.668,8.018 244.475,9.786 244.475,12.131 C244.475,13.326 244.236,14.411 243.765,15.355 C243.292,16.301 242.627,17.109 241.788,17.756 C240.937,18.412 239.913,18.925 238.742,19.279 C237.561,19.637 236.253,19.818 234.854,19.818 L223.292,19.818 L223.292,4.777 Z M243.06,22.29 C244.383,21.647 245.542,20.832 246.506,19.867 C247.475,18.897 248.237,17.739 248.771,16.425 C249.302,15.115 249.572,13.607 249.572,11.944 C249.572,10.164 249.225,8.52 248.542,7.057 C247.858,5.595 246.877,4.324 245.624,3.279 C244.376,2.239 242.856,1.425 241.105,0.86 C239.36,0.297 237.377,0.012 235.211,0.012 L218.195,0.012 L218.195,39.466 L223.292,39.466 L223.292,24.417 L233.812,24.417 L245.043,39.466 L251.319,39.466 L239.338,23.54 C240.661,23.268 241.911,22.849 243.06,22.29 L243.06,22.29 Z" id="Fill-5" fill="#E1D292"></path>
                <path d="M268.825,4.777 L280.442,4.777 C283.487,4.777 285.876,5.433 287.541,6.727 C289.2,8.018 290.006,9.786 290.006,12.131 C290.006,13.328 289.767,14.413 289.296,15.356 C288.825,16.301 288.159,17.108 287.319,17.756 C286.47,18.412 285.445,18.924 284.274,19.279 C283.094,19.637 281.787,19.818 280.386,19.818 L268.825,19.818 L268.825,4.777 Z M288.593,22.29 C289.914,21.647 291.073,20.832 292.037,19.867 C293.008,18.897 293.77,17.739 294.303,16.425 C294.835,15.114 295.104,13.606 295.104,11.944 C295.104,10.165 294.758,8.521 294.074,7.058 C293.391,5.595 292.409,4.324 291.156,3.279 C289.907,2.239 288.387,1.425 286.636,0.861 C284.893,0.297 282.91,0.012 280.743,0.012 L263.728,0.012 L263.728,39.466 L268.825,39.466 L268.825,24.417 L279.345,24.417 L290.576,39.466 L296.852,39.466 L284.871,23.54 C286.193,23.268 287.442,22.849 288.593,22.29 L288.593,22.29 Z" id="Fill-6" fill="#E1D292"></path>
                <polyline id="Fill-7" fill="#E1D292" points="314.357 21.928 335.491 21.928 335.491 17.218 314.357 17.218 314.357 4.722 337.981 4.722 337.981 0.012 309.26 0.012 309.26 39.466 338.258 39.466 338.258 34.756 314.357 34.756 314.357 21.928"></polyline>
                <polyline id="Fill-8" fill="#E1D292" points="356.958 34.701 356.958 0.012 351.861 0.012 351.861 39.466 378.756 39.466 378.756 34.701 356.958 34.701"></polyline>
                <polyline id="Fill-9" fill="#E1D292" points="397.302 34.701 397.302 0.012 392.204 0.012 392.204 39.466 419.099 39.466 419.099 34.701 397.302 34.701"></polyline>
                <path d="M200.904,56.511 L197.152,64.882 L204.632,64.882 L200.904,56.511 Z M209.275,70.862 L207.282,70.862 L205.359,66.524 L196.425,66.524 L194.479,70.862 L192.579,70.862 L200.06,54.33 L201.795,54.33 L209.275,70.862 L209.275,70.862 Z" id="Fill-10" fill="#E1D292"></path>
                <path d="M229.686,60.122 C229.365,59.325 228.912,58.633 228.326,58.047 C227.74,57.46 227.024,56.999 226.18,56.663 C225.336,56.327 224.398,56.159 223.366,56.159 L219.521,56.159 L219.521,69.15 L223.366,69.15 C224.398,69.15 225.336,68.986 226.18,68.657 C227.024,68.329 227.74,67.872 228.326,67.286 C228.912,66.699 229.365,66.016 229.686,65.234 C230.006,64.452 230.167,63.6 230.167,62.678 C230.167,61.771 230.006,60.919 229.686,60.122 Z M231.456,65.879 C231.034,66.887 230.436,67.759 229.663,68.493 C228.889,69.228 227.966,69.807 226.895,70.229 C225.825,70.651 224.648,70.862 223.366,70.862 L217.668,70.862 L217.668,54.447 L223.366,54.447 C224.648,54.447 225.825,54.654 226.895,55.069 C227.966,55.483 228.889,56.057 229.663,56.792 C230.436,57.527 231.034,58.395 231.456,59.395 C231.879,60.396 232.09,61.474 232.09,62.631 C232.09,63.788 231.879,64.87 231.456,65.879 L231.456,65.879 Z" id="Fill-11" fill="#E1D292"></path>
                <polyline id="Fill-12" fill="#E1D292" points="252.465 54.447 254.458 54.447 247.4 70.979 245.758 70.979 238.7 54.447 240.764 54.447 246.603 68.587 252.465 54.447"></polyline>
                <polygon id="Fill-13" fill="#E1D292" points="263.015 70.862 264.868 70.862 264.868 54.447 263.015 54.447"></polygon>
                <path d="M276.449,59.588 C276.574,59.902 276.801,60.187 277.129,60.446 C277.458,60.704 277.911,60.939 278.489,61.15 C279.067,61.362 279.81,61.562 280.717,61.749 C282.546,62.156 283.894,62.72 284.762,63.44 C285.63,64.16 286.064,65.154 286.064,66.422 C286.064,67.127 285.924,67.769 285.647,68.349 C285.369,68.928 284.986,69.421 284.497,69.828 C284.009,70.235 283.421,70.548 282.734,70.768 C282.045,70.986 281.295,71.096 280.483,71.096 C279.169,71.096 277.969,70.884 276.883,70.46 C275.796,70.037 274.761,69.381 273.776,68.493 L274.925,67.133 C275.785,67.915 276.652,68.497 277.528,68.88 C278.403,69.263 279.412,69.455 280.553,69.455 C281.663,69.455 282.55,69.197 283.214,68.68 C283.879,68.163 284.211,67.482 284.211,66.636 C284.211,66.245 284.148,65.897 284.023,65.591 C283.898,65.286 283.678,65.008 283.365,64.758 C283.051,64.507 282.616,64.28 282.06,64.077 C281.504,63.873 280.795,63.677 279.933,63.489 C278.993,63.286 278.174,63.051 277.477,62.785 C276.779,62.519 276.203,62.198 275.749,61.822 C275.294,61.446 274.957,61.008 274.738,60.507 C274.519,60.006 274.409,59.411 274.409,58.722 C274.409,58.065 274.542,57.462 274.808,56.914 C275.073,56.366 275.449,55.892 275.933,55.493 C276.418,55.093 276.988,54.78 277.645,54.553 C278.302,54.326 279.021,54.213 279.803,54.213 C281.006,54.213 282.057,54.379 282.956,54.71 C283.855,55.041 284.727,55.54 285.571,56.206 L284.492,57.636 C283.726,57.011 282.956,56.558 282.183,56.276 C281.409,55.995 280.6,55.854 279.756,55.854 C279.224,55.854 278.743,55.925 278.313,56.065 C277.883,56.206 277.516,56.395 277.211,56.629 C276.906,56.864 276.672,57.146 276.508,57.475 C276.344,57.804 276.262,58.156 276.262,58.531 C276.262,58.923 276.324,59.276 276.449,59.588" id="Fill-14" fill="#E1D292"></path>
                <path d="M308.608,60.028 C308.288,59.2 307.838,58.48 307.26,57.871 C306.681,57.261 305.997,56.777 305.208,56.417 C304.418,56.057 303.555,55.878 302.617,55.878 C301.679,55.878 300.815,56.053 300.026,56.405 C299.236,56.757 298.56,57.238 297.997,57.847 C297.435,58.457 296.993,59.172 296.672,59.993 C296.352,60.814 296.192,61.693 296.192,62.631 C296.192,63.569 296.352,64.452 296.672,65.281 C296.993,66.11 297.442,66.828 298.021,67.438 C298.599,68.048 299.283,68.533 300.073,68.892 C300.862,69.252 301.726,69.431 302.664,69.431 C303.602,69.431 304.465,69.255 305.255,68.904 C306.044,68.552 306.72,68.071 307.283,67.462 C307.846,66.852 308.288,66.137 308.608,65.316 C308.929,64.495 309.089,63.616 309.089,62.678 C309.089,61.74 308.929,60.857 308.608,60.028 Z M310.402,65.879 C309.995,66.903 309.425,67.806 308.69,68.587 C307.955,69.369 307.072,69.99 306.04,70.451 C305.009,70.912 303.867,71.143 302.617,71.143 C301.366,71.143 300.229,70.916 299.205,70.463 C298.181,70.01 297.301,69.396 296.567,68.622 C295.832,67.849 295.265,66.95 294.867,65.926 C294.468,64.902 294.269,63.819 294.269,62.678 C294.269,61.537 294.472,60.454 294.878,59.43 C295.285,58.406 295.855,57.504 296.59,56.722 C297.325,55.94 298.208,55.319 299.24,54.857 C300.272,54.396 301.413,54.166 302.664,54.166 C303.914,54.166 305.052,54.393 306.076,54.846 C307.099,55.299 307.979,55.913 308.714,56.686 C309.448,57.46 310.015,58.36 310.414,59.383 C310.813,60.407 311.012,61.49 311.012,62.631 C311.012,63.772 310.809,64.855 310.402,65.879 L310.402,65.879 Z" id="Fill-15" fill="#E1D292"></path>
                <path d="M330.118,57.018 C329.381,56.445 328.347,56.159 327.015,56.159 L321.937,56.159 L321.937,62.842 L326.992,62.842 C327.602,62.842 328.167,62.764 328.684,62.607 C329.201,62.45 329.648,62.226 330.024,61.936 C330.4,61.646 330.694,61.289 330.906,60.865 C331.117,60.442 331.223,59.963 331.223,59.43 C331.223,58.394 330.854,57.59 330.118,57.018 Z M331.387,70.862 L326.627,64.484 L321.937,64.484 L321.937,70.862 L320.084,70.862 L320.084,54.447 L327.143,54.447 C328.049,54.447 328.866,54.565 329.593,54.799 C330.32,55.034 330.942,55.366 331.458,55.796 C331.973,56.226 332.372,56.743 332.653,57.345 C332.935,57.947 333.076,58.616 333.076,59.351 C333.076,60.039 332.966,60.653 332.747,61.192 C332.528,61.732 332.22,62.201 331.821,62.6 C331.422,62.999 330.949,63.331 330.402,63.597 C329.855,63.863 329.261,64.051 328.62,64.16 L333.662,70.862 L331.387,70.862 L331.387,70.862 Z" id="Fill-16" fill="#E1D292"></path>
                <polyline id="Fill-17" fill="#E1D292" points="348.597 70.862 346.744 70.862 346.744 64.366 339.92 54.447 342.172 54.447 347.694 62.654 353.263 54.447 355.421 54.447 348.597 64.343 348.597 70.862"></polyline>
                <polygon id="Fill-18" fill="#E1D292" points="128.901 63.384 181.68 63.384 181.68 61.801 128.901 61.801"></polygon>
                <polygon id="Fill-19" fill="#E1D292" points="365.814 63.384 418.594 63.384 418.594 61.801 365.814 61.801"></polygon>
            </g>
        </g>
    </g>
</svg>